<svg xmlns="http://www.w3.org/2000/svg" viewBox="0 0 383.22 343.62"><g id="Layer_2" data-name="Layer 2"><g id="Layer_1-2" data-name="Layer 1"><path d="M0,142.59c1.74-2.78,4.16-3.83,7.5-3.81,18.72.13,37.43.06,56.14.06a13.33,13.33,0,0,1,2.61.1c2.94.63,4.65,2.56,4.68,5.5a5.28,5.28,0,0,1-4.3,5.43,13.31,13.31,0,0,1-3.35.21c-18.46,0-36.92-.06-55.39.07-3.43,0-6.07-.84-7.89-3.81Z"/><path d="M95,263.18H288.39v-4.61q0-32.23,0-64.49a20,20,0,0,1,.24-4.1c.61-2.94,2.55-4.65,5.54-4.55s5.05,1.94,5.37,5.16c.12,1.24.07,2.5.07,3.75V263.4c4,0,7.71,0,11.4,0,4.78.07,6.85,2.07,6.9,6.88.08,7.87,0,15.75,0,23.62v4.49c5.85,0,11.31,0,16.76,0,5.64,0,7.4,1.78,7.41,7.36q0,15.38,0,30.74c0,5.12-1.92,7.07-7,7.07h-238c-4.38,0-6.92-2.11-6.92-5.6s2.6-5.63,7.29-5.63H330.57V309.85H52.66v22.49h3.4c6.36,0,12.73-.07,19.09.05,3.53.06,5.77,2.38,5.79,5.55a5.33,5.33,0,0,1-5.35,5.59c-9.73.12-19.46.14-29.19,0a5,5,0,0,1-5.19-5.32q-.18-17.25,0-34.49c0-3.33,2.34-5.19,6-5.25,5.84-.09,11.68,0,18.05,0V287c0-5.62-.07-11.25,0-16.87.08-4.57,2.17-6.59,6.72-6.67,3.71-.06,7.42,0,11.57,0v-5.15c0-46.12-.5-92.25.2-138.35,1-63.47,56.76-112,119.75-104.95,49.62,5.53,89.49,44.83,95.08,94.15,1,8.9.82,18,.93,26.94.14,12.12.07,24.24,0,36.36,0,3.78-2.37,6.19-5.59,6.15s-5.27-2.34-5.56-5.91c-.08-1,0-2,0-3,0-15.5.09-31,0-46.5C288,78.53,260.26,41.5,218,29.17,163.76,13.32,106.28,49.09,96.53,104.9a108.4,108.4,0,0,0-1.6,18.25c-.13,45.49-.07,91-.07,136.48C94.86,260.73,95,261.83,95,263.18ZM76.73,298.12H306.4V274.9H76.73Z"/><path d="M173.36,67.09c.74,7.16,1.36,13.6,2.06,20,.82,7.58,1.73,15.14,2.55,22.71.42,3.9-1.62,6.74-5,7.13s-5.73-1.93-6.19-6c-1.47-12.91-3-25.81-4.29-38.73-1.13-11.15,3.72-16.38,14.89-16.4q14.4,0,28.81,0c10.52,0,15.58,5.27,14.52,15.68-2.19,21.61-4.65,43.2-7,64.8-1.12,10.31-2.34,20.6-3.36,30.92-1.06,10.7-8.63,18.11-18.75,18.11s-17.7-7.4-18.76-18.1c-1.21-12.18-2.6-24.34-3.91-36.51-.48-4.51,1.11-7.2,4.53-7.67,3.61-.49,6,1.7,6.57,6.4,1.41,12.15,2.69,24.33,4,36.49.57,5.23,3.2,8.1,7.5,8.13s7-2.87,7.6-8q5.12-46.74,10.26-93.47c.61-5.5.63-5.51-4.71-5.51H173.36Z"/><path d="M191.48,195a19,19,0,1,1-18.78,19.19A18.77,18.77,0,0,1,191.48,195Zm7.82,19a7.68,7.68,0,1,0-15.35,0,7.68,7.68,0,1,0,15.35,0Z"/><path d="M348,138.84q14,0,28.07,0c4.59,0,7.26,2.19,7.15,5.76s-2.67,5.47-7.08,5.47q-28.44,0-56.89,0c-4.35,0-7-2.16-7-5.6s2.6-5.62,6.93-5.63C328.79,138.82,338.4,138.84,348,138.84Z"/><path d="M91.17,46.94c0,5.3-4.66,8-8.36,5.88a12.5,12.5,0,0,1-2.57-2.15C67,37.43,53.75,24.21,40.62,10.86a9.47,9.47,0,0,1-2.77-5.4C37.59,1.25,42.58-1.27,46.19,1a14.69,14.69,0,0,1,2.53,2.21Q68.44,22.92,88.11,42.7A27.8,27.8,0,0,1,91.17,46.94Z"/><path d="M346.25,5.19c-1.15,2-1.71,3.78-2.85,4.94q-20.53,20.78-41.24,41.38c-2.68,2.66-6.05,2.74-8.33.5-2.51-2.46-2.39-5.59.55-8.56q20.46-20.6,41-41.11c1.9-1.9,4.18-3.19,6.67-1.67C343.67,1.66,344.76,3.54,346.25,5.19Z"/></g></g></svg>